<mxfile host="app.diagrams.net" modified="2022-09-23T06:28:57.988Z" agent="5.0 (Windows NT 10.0; Win64; x64) AppleWebKit/537.36 (KHTML, like Gecko) Chrome/105.0.0.0 Safari/537.36 Edg/105.0.1343.42" etag="opHbCl6HiZ3Zh1bTlfN9" version="20.3.6" type="github">
  <diagram id="wIn7ZkE3RFjEcEEZ4gKy" name="第 1 页">
    <mxGraphModel dx="1357" dy="802" grid="1" gridSize="10" guides="1" tooltips="1" connect="1" arrows="1" fold="1" page="1" pageScale="1" pageWidth="827" pageHeight="1169" math="0" shadow="0">
      <root>
        <mxCell id="0" />
        <mxCell id="1" parent="0" />
        <mxCell id="gbGtpRRywDkGLv7elzUa-1" value="" style="rounded=0;whiteSpace=wrap;html=1;" parent="1" vertex="1">
          <mxGeometry x="250" y="350" width="120" height="60" as="geometry" />
        </mxCell>
        <mxCell id="7o-Uj-gKcHKZdGc0XZbz-3" style="edgeStyle=orthogonalEdgeStyle;rounded=0;orthogonalLoop=1;jettySize=auto;html=1;entryX=0;entryY=0.5;entryDx=0;entryDy=0;" edge="1" parent="1" source="7o-Uj-gKcHKZdGc0XZbz-1" target="7o-Uj-gKcHKZdGc0XZbz-2">
          <mxGeometry relative="1" as="geometry" />
        </mxCell>
        <mxCell id="7o-Uj-gKcHKZdGc0XZbz-1" value="" style="rounded=0;whiteSpace=wrap;html=1;" vertex="1" parent="1">
          <mxGeometry x="200" y="170" width="40" height="60" as="geometry" />
        </mxCell>
        <mxCell id="7o-Uj-gKcHKZdGc0XZbz-4" style="edgeStyle=orthogonalEdgeStyle;rounded=0;orthogonalLoop=1;jettySize=auto;html=1;exitX=1;exitY=0.5;exitDx=0;exitDy=0;" edge="1" parent="1" source="7o-Uj-gKcHKZdGc0XZbz-2" target="gbGtpRRywDkGLv7elzUa-1">
          <mxGeometry relative="1" as="geometry" />
        </mxCell>
        <mxCell id="7o-Uj-gKcHKZdGc0XZbz-2" value="" style="rounded=0;whiteSpace=wrap;html=1;" vertex="1" parent="1">
          <mxGeometry x="410" y="190" width="120" height="60" as="geometry" />
        </mxCell>
      </root>
    </mxGraphModel>
  </diagram>
</mxfile>
